<svg xmlns="http://www.w3.org/2000/svg" width="690" height="60" viewBox="0 0 690 60"><path fill="#FF35C6" d="M4.0925293,47 L18.9143066,47 C28.657959,47 34.529541,42.1123047 34.529541,34.0507812 C34.529541,27.9570312 30.3400879,23.5454102 24.1193848,22.847168 L24.1193848,22.5932617 C28.6896973,21.831543 32.276123,17.4833984 32.276123,12.6274414 C32.276123,5.70849609 26.9440918,1.20166016 18.8190918,1.20166016 L4.0925293,1.20166016 C1.87084961,1.20166016 0.537841797,2.59814453 0.537841797,4.88330078 L0.537841797,43.3183594 C0.537841797,45.6035156 1.87084961,47 4.0925293,47 Z M7.6472168,20.6889648 L7.6472168,7.00976562 L17.1052246,7.00976562 C22.2468262,7.00976562 25.166748,9.35839844 25.166748,13.6113281 C25.166748,18.1499023 21.770752,20.6889648 15.6135254,20.6889648 L7.6472168,20.6889648 Z M7.6472168,41.1918945 L7.6472168,26.1162109 L17.041748,26.1162109 C23.7702637,26.1162109 27.2614746,28.6552734 27.2614746,33.6064453 C27.2614746,38.5576172 23.8654785,41.1918945 17.4543457,41.1918945 L7.6472168,41.1918945 Z M47.3639249,8.62841797 C49.4586515,8.62841797 51.1407804,6.97802734 51.1407804,4.91503906 C51.1407804,2.85205078 49.4586515,1.20166016 47.3639249,1.20166016 C45.2691983,1.20166016 43.6188077,2.85205078 43.6188077,4.91503906 C43.6188077,6.97802734 45.2691983,8.62841797 47.3639249,8.62841797 Z M59.5831632,8.62841797 C61.6778897,8.62841797 63.3600186,6.97802734 63.3600186,4.91503906 C63.3600186,2.85205078 61.6778897,1.20166016 59.5831632,1.20166016 C57.4884366,1.20166016 55.838046,2.85205078 55.838046,4.91503906 C55.838046,6.97802734 57.4884366,8.62841797 59.5831632,8.62841797 Z M50.7916593,47.6030273 C55.9015225,47.6030273 59.2975186,45.3496094 61.138339,41.3505859 L61.2970304,41.3505859 L61.2970304,44.1435547 C61.2970304,46.2382812 62.6300382,47.6030273 64.5978116,47.6030273 C66.565585,47.6030273 67.8668546,46.2382812 67.8668546,44.1118164 L67.8668546,16.6582031 C67.8668546,14.3730469 66.4703702,13.0083008 64.4391202,13.0083008 C62.4396085,13.0083008 61.0113858,14.3730469 61.0113858,16.6582031 L61.0113858,33.0668945 C61.0113858,38.2719727 58.0279874,41.699707 53.0768155,41.699707 C48.3478116,41.699707 45.9357022,38.9702148 45.9357022,33.8920898 L45.9357022,16.6582031 C45.9357022,14.3730469 44.5074796,13.0083008 42.5079679,13.0083008 C40.4767179,13.0083008 39.0802335,14.3730469 39.0802335,16.6582031 L39.0802335,35.2250977 C39.0802335,42.8740234 43.5235929,47.6030273 50.7916593,47.6030273 Z M77.4639338,47.6030273 C79.4951838,47.6030273 80.8916681,46.206543 80.8916681,43.9848633 L80.8916681,26.9414062 C80.8916681,22.7836914 82.795965,19.6416016 87.4932306,19.6098633 C88.9214533,19.6098633 89.9370783,19.3242188 90.6353205,18.7211914 C91.3018244,18.1816406 91.6509455,17.3881836 91.6509455,16.309082 C91.6509455,15.2299805 91.365301,14.4047852 90.7305353,13.8969727 C90.1592463,13.3574219 89.2388361,13.0717773 88.0327814,13.0717773 C84.7002619,13.0717773 81.6216486,15.5791016 80.7012385,19.3242188 L80.5425471,19.3242188 L80.5425471,16.4677734 C80.5425471,14.3730469 79.2095392,13.0083008 77.3052424,13.0083008 C75.3692072,13.0083008 74.0361994,14.3730469 74.0361994,16.4677734 L74.0361994,43.9848633 C74.0361994,46.206543 75.4009455,47.6030273 77.4639338,47.6030273 Z M107.341775,59.5683594 C117.275857,59.6635742 123.337868,54.331543 123.337868,46.0795898 L123.337868,16.53125 C123.337868,14.3095703 121.877907,13.0083008 119.910134,13.0083008 C117.942361,13.0083008 116.450661,14.3095703 116.450661,16.53125 L116.450661,19.2290039 L116.323708,19.2290039 C114.292458,15.4521484 110.610818,13.0717773 105.881814,13.0717773 C97.2490012,13.0717773 91.8534934,19.578125 91.8534934,30.0200195 C91.8534934,40.3349609 97.3124778,46.9047852 105.723122,46.9047852 C110.483865,46.9047852 114.419411,44.5244141 116.29197,40.90625 L116.450661,40.90625 L116.450661,46.206543 C116.450661,50.8720703 113.054665,54.0458984 107.468728,53.9824219 C104.199685,53.9189453 101.851052,52.6811523 99.1215598,49.824707 C98.2011497,48.9042969 97.5346458,48.5551758 96.4872825,48.5551758 C94.741677,48.5551758 93.5673606,49.6977539 93.5673606,51.284668 C93.5673606,52.078125 93.7577903,52.7763672 94.2021262,53.5380859 C96.4872825,57.15625 101.279763,59.5048828 107.341775,59.5683594 Z M107.563943,41.3188477 C102.295388,41.3188477 98.8676536,37.0341797 98.8676536,30.0517578 C98.8676536,23.1010742 102.295388,18.7211914 107.563943,18.7211914 C112.927712,18.7211914 116.4824,23.2280273 116.4824,30.0834961 C116.4824,36.9389648 112.927712,41.3188477 107.563943,41.3188477 Z M143.948131,47.6347656 C150.168834,47.6347656 155.024791,45.1274414 157.214733,40.7475586 C157.500377,40.0810547 157.690807,39.4462891 157.690807,38.9067383 C157.690807,37.1928711 156.484752,36.1137695 154.834362,36.1137695 C153.850475,36.1137695 153.152233,36.4628906 152.422252,37.3198242 C149.88319,40.7792969 147.534557,42.0805664 143.78944,42.0805664 C138.330455,42.0805664 134.902721,38.2719727 134.902721,32.1782227 L134.902721,32.0195312 L155.088268,32.0195312 C157.214733,32.0195312 158.484264,30.75 158.484264,28.5283203 C158.484264,19.4194336 152.358776,13.0083008 143.472057,13.0083008 C134.014049,13.0083008 127.983776,19.8637695 127.983776,30.4643555 C127.983776,41.2553711 133.887096,47.6347656 143.948131,47.6347656 Z M134.934459,27.2270508 C135.28358,22.0219727 138.711315,18.5307617 143.440319,18.5307617 C148.201061,18.5307617 151.470104,21.9902344 151.628795,27.2270508 L134.934459,27.2270508 Z M166.621382,47.6030273 C168.652632,47.6030273 170.049117,46.206543 170.049117,43.9848633 L170.049117,26.9414062 C170.049117,22.7836914 171.953414,19.6416016 176.650679,19.6098633 C178.078902,19.6098633 179.094527,19.3242188 179.792769,18.7211914 C180.459273,18.1816406 180.808394,17.3881836 180.808394,16.309082 C180.808394,15.2299805 180.522749,14.4047852 179.887984,13.8969727 C179.316695,13.3574219 178.396285,13.0717773 177.19023,13.0717773 C173.85771,13.0717773 170.779097,15.5791016 169.858687,19.3242188 L169.699996,19.3242188 L169.699996,16.4677734 C169.699996,14.3730469 168.366988,13.0083008 166.462691,13.0083008 C164.526656,13.0083008 163.193648,14.3730469 163.193648,16.4677734 L163.193648,43.9848633 C163.193648,46.206543 164.558394,47.6030273 166.621382,47.6030273 Z M188.310747,47 L203.132524,47 C212.876176,47 218.747758,42.1123047 218.747758,34.0507812 C218.747758,27.9570312 214.558305,23.5454102 208.337602,22.847168 L208.337602,22.5932617 C212.907915,21.831543 216.49434,17.4833984 216.49434,12.6274414 C216.49434,5.70849609 211.162309,1.20166016 203.037309,1.20166016 L188.310747,1.20166016 C186.089067,1.20166016 184.756059,2.59814453 184.756059,4.88330078 L184.756059,43.3183594 C184.756059,45.6035156 186.089067,47 188.310747,47 Z M191.865434,20.6889648 L191.865434,7.00976562 L201.323442,7.00976562 C206.465044,7.00976562 209.384965,9.35839844 209.384965,13.6113281 C209.384965,18.1499023 205.988969,20.6889648 199.831743,20.6889648 L191.865434,20.6889648 Z M191.865434,41.1918945 L191.865434,26.1162109 L201.259965,26.1162109 C207.988481,26.1162109 211.479692,28.6552734 211.479692,33.6064453 C211.479692,38.5576172 208.083696,41.1918945 201.672563,41.1918945 L191.865434,41.1918945 Z M235.009877,47.6030273 C240.11974,47.6030273 243.515736,45.3496094 245.356556,41.3505859 L245.515248,41.3505859 L245.515248,44.1435547 C245.515248,46.2382812 246.848256,47.6030273 248.816029,47.6030273 C250.783802,47.6030273 252.085072,46.2382812 252.085072,44.1118164 L252.085072,16.6582031 C252.085072,14.3730469 250.688588,13.0083008 248.657338,13.0083008 C246.657826,13.0083008 245.229603,14.3730469 245.229603,16.6582031 L245.229603,33.0668945 C245.229603,38.2719727 242.246205,41.699707 237.295033,41.699707 C232.566029,41.699707 230.15392,38.9702148 230.15392,33.8920898 L230.15392,16.6582031 C230.15392,14.3730469 228.725697,13.0083008 226.726185,13.0083008 C224.694935,13.0083008 223.298451,14.3730469 223.298451,16.6582031 L223.298451,35.2250977 C223.298451,42.8740234 227.74181,47.6030273 235.009877,47.6030273 Z M270.56887,47.6347656 C278.820823,47.6347656 284.375022,43.5087891 284.375022,37.3198242 C284.375022,32.3686523 281.677268,29.8613281 274.663108,28.2426758 L269.489768,27.0366211 C265.966819,26.2114258 264.348167,24.7514648 264.348167,22.6567383 C264.348167,20.0541992 266.887229,18.2451172 270.56887,18.2451172 C273.933128,18.2451172 275.964378,19.578125 277.456077,22.1171875 C278.122581,23.1962891 279.106468,23.5771484 280.217307,23.5771484 C281.931175,23.5771484 282.883323,22.5615234 282.883323,21.0380859 C282.883323,20.7207031 282.819846,20.4033203 282.75637,20.0224609 C281.804221,16.0869141 276.85305,13.0083008 270.822776,13.0083008 C262.888206,13.0083008 257.651389,17.0073242 257.651389,23.0375977 C257.651389,27.7983398 260.825218,30.972168 267.299827,32.4956055 L272.568382,33.7333984 C276.154807,34.590332 277.456077,35.7646484 277.456077,37.9545898 C277.456077,40.7158203 274.8218,42.3979492 270.917991,42.3979492 C266.950706,42.3979492 264.951194,41.1918945 263.237327,38.4941406 C262.380393,37.2246094 261.396507,36.6850586 260.253928,36.6850586 C258.540061,36.6850586 257.302268,37.7006836 257.302268,39.4145508 C257.302268,39.8588867 257.365745,40.3349609 257.587913,40.8427734 C259.174827,44.9370117 263.999046,47.6347656 270.56887,47.6347656 Z M306.044767,47 L320.866544,47 C330.610196,47 336.481778,42.1123047 336.481778,34.0507812 C336.481778,27.9570312 332.292325,23.5454102 326.071622,22.847168 L326.071622,22.5932617 C330.641934,21.831543 334.22836,17.4833984 334.22836,12.6274414 C334.22836,5.70849609 328.896329,1.20166016 320.771329,1.20166016 L306.044767,1.20166016 C303.823087,1.20166016 302.490079,2.59814453 302.490079,4.88330078 L302.490079,43.3183594 C302.490079,45.6035156 303.823087,47 306.044767,47 Z M309.599454,20.6889648 L309.599454,7.00976562 L319.057462,7.00976562 C324.199063,7.00976562 327.118985,9.35839844 327.118985,13.6113281 C327.118985,18.1499023 323.722989,20.6889648 317.565763,20.6889648 L309.599454,20.6889648 Z M309.599454,41.1918945 L309.599454,26.1162109 L318.993985,26.1162109 C325.722501,26.1162109 329.213712,28.6552734 329.213712,33.6064453 C329.213712,38.5576172 325.817716,41.1918945 319.406583,41.1918945 L309.599454,41.1918945 Z M350.966553,47.5712891 C355.314697,47.5712891 359.567627,45.2226562 361.503662,41.5092773 L361.662354,41.5092773 L361.662354,44.3339844 C361.72583,46.3652344 363.0271,47.6030273 364.931396,47.6030273 C366.867432,47.6030273 368.232178,46.3017578 368.232178,44.1435547 L368.232178,23.9897461 C368.232178,17.2929688 363.058838,13.0083008 354.965576,13.0083008 C348.967041,13.0083008 343.920654,15.4204102 342.175049,19.1972656 C341.762451,19.9589844 341.572021,20.7207031 341.572021,21.4189453 C341.572021,23.1328125 342.809814,24.2753906 344.523682,24.2753906 C345.729736,24.2753906 346.618408,23.8310547 347.31665,22.8154297 C349.220947,19.7685547 351.410889,18.5942383 354.71167,18.5942383 C358.901123,18.5942383 361.408447,20.815918 361.408447,24.5292969 L361.408447,27.1000977 L352.236084,27.6396484 C344.333252,28.0839844 339.826416,31.6704102 339.826416,37.5102539 C339.826416,43.5087891 344.428467,47.5712891 350.966553,47.5712891 Z M352.839111,42.144043 C349.189209,42.144043 346.745361,40.2397461 346.745361,37.3198242 C346.745361,34.4633789 349.062256,32.6542969 353.156494,32.3686523 L361.408447,31.8608398 L361.408447,34.4951172 C361.408447,38.8432617 357.631592,42.144043 352.839111,42.144043 Z M386.811191,47.5712891 C392.016269,47.5712891 395.539218,44.96875 397.253085,41.0649414 L397.3483,41.0649414 L397.3483,44.175293 C397.3483,46.3334961 398.903476,47.6030273 400.839511,47.6030273 C402.839023,47.6030273 404.235507,46.3334961 404.235507,44.175293 L404.235507,4.21679688 C404.235507,1.96337891 402.807284,0.598632812 400.807773,0.598632812 C398.776523,0.598632812 397.3483,1.96337891 397.3483,4.21679688 L397.3483,19.1655273 L397.221347,19.1655273 C395.348788,15.4838867 391.540194,13.0717773 386.747714,13.0717773 C378.368808,13.0717773 372.78287,19.7685547 372.78287,30.3056641 C372.78287,40.8427734 378.368808,47.5712891 386.811191,47.5712891 Z M388.620273,41.7631836 C383.193026,41.7631836 379.79703,37.3515625 379.79703,30.3056641 C379.79703,23.2915039 383.193026,18.8481445 388.620273,18.8481445 C393.888827,18.8481445 397.411776,23.3867188 397.411776,30.3056641 C397.411776,37.2880859 393.888827,41.7631836 388.620273,41.7631836 Z M427.619118,47 L442.440896,47 C452.184548,47 458.05613,42.1123047 458.05613,34.0507812 C458.05613,27.9570312 453.866677,23.5454102 447.645974,22.847168 L447.645974,22.5932617 C452.216286,21.831543 455.802712,17.4833984 455.802712,12.6274414 C455.802712,5.70849609 450.470681,1.20166016 442.345681,1.20166016 L427.619118,1.20166016 C425.397439,1.20166016 424.064431,2.59814453 424.064431,4.88330078 L424.064431,43.3183594 C424.064431,45.6035156 425.397439,47 427.619118,47 Z M431.173806,20.6889648 L431.173806,7.00976562 L440.631814,7.00976562 C445.773415,7.00976562 448.693337,9.35839844 448.693337,13.6113281 C448.693337,18.1499023 445.297341,20.6889648 439.140115,20.6889648 L431.173806,20.6889648 Z M431.173806,41.1918945 L431.173806,26.1162109 L440.568337,26.1162109 C447.296853,26.1162109 450.788064,28.6552734 450.788064,33.6064453 C450.788064,38.5576172 447.392068,41.1918945 440.980935,41.1918945 L431.173806,41.1918945 Z M477.23817,47.6347656 C483.458873,47.6347656 488.31483,45.1274414 490.504772,40.7475586 C490.790416,40.0810547 490.980846,39.4462891 490.980846,38.9067383 C490.980846,37.1928711 489.774791,36.1137695 488.124401,36.1137695 C487.140514,36.1137695 486.442272,36.4628906 485.712291,37.3198242 C483.173229,40.7792969 480.824596,42.0805664 477.079479,42.0805664 C471.620494,42.0805664 468.19276,38.2719727 468.19276,32.1782227 L468.19276,32.0195312 L488.378307,32.0195312 C490.504772,32.0195312 491.774303,30.75 491.774303,28.5283203 C491.774303,19.4194336 485.648815,13.0083008 476.762096,13.0083008 C467.304088,13.0083008 461.273815,19.8637695 461.273815,30.4643555 C461.273815,41.2553711 467.177135,47.6347656 477.23817,47.6347656 Z M468.224498,27.2270508 C468.573619,22.0219727 472.001354,18.5307617 476.730358,18.5307617 C481.4911,18.5307617 484.760143,21.9902344 484.918834,27.2270508 L468.224498,27.2270508 Z M509.178999,47.6030273 C511.527632,47.6030273 512.987593,46.5239258 513.876265,44.1118164 L523.778609,17.9594727 C524.000777,17.3881836 524.12773,16.7216797 524.12773,16.1186523 C524.12773,14.3095703 522.731246,13.0083008 520.763472,13.0083008 C519.208296,13.0083008 518.129195,13.8652344 517.557906,15.6425781 L509.274214,40.3032227 L509.147261,40.3032227 L500.86357,15.7060547 C500.292281,13.8652344 499.213179,13.0083008 497.626265,13.0083008 C495.626753,13.0083008 494.166792,14.2460938 494.166792,16.1503906 C494.166792,16.7851562 494.325484,17.4516602 494.547652,18.0546875 L504.449996,44.1118164 C505.402144,46.5874023 506.735152,47.6030273 509.178999,47.6030273 Z M541.691118,47.6347656 C547.911821,47.6347656 552.767778,45.1274414 554.957719,40.7475586 C555.243364,40.0810547 555.433794,39.4462891 555.433794,38.9067383 C555.433794,37.1928711 554.227739,36.1137695 552.577348,36.1137695 C551.593461,36.1137695 550.895219,36.4628906 550.165239,37.3198242 C547.626176,40.7792969 545.277544,42.0805664 541.532426,42.0805664 C536.073442,42.0805664 532.645708,38.2719727 532.645708,32.1782227 L532.645708,32.0195312 L552.831254,32.0195312 C554.957719,32.0195312 556.227251,30.75 556.227251,28.5283203 C556.227251,19.4194336 550.101762,13.0083008 541.215044,13.0083008 C531.757036,13.0083008 525.726762,19.8637695 525.726762,30.4643555 C525.726762,41.2553711 531.630083,47.6347656 541.691118,47.6347656 Z M532.677446,27.2270508 C533.026567,22.0219727 536.454301,18.5307617 541.183305,18.5307617 C545.944047,18.5307617 549.21309,21.9902344 549.371782,27.2270508 L532.677446,27.2270508 Z M564.364369,47.6030273 C566.363881,47.6030273 567.792103,46.2382812 567.792103,43.9848633 L567.792103,27.5444336 C567.792103,22.3710938 570.902455,18.9433594 575.726673,18.9433594 C580.487416,18.9433594 582.836048,21.7045898 582.836048,26.7192383 L582.836048,43.9848633 C582.836048,46.2382812 584.264271,47.6030273 586.263783,47.6030273 C588.295033,47.6030273 589.723256,46.2382812 589.723256,43.9848633 L589.723256,25.3862305 C589.723256,17.7373047 585.502064,13.0400391 578.138783,13.0400391 C572.997181,13.0400391 569.50597,15.3251953 567.696888,19.1337891 L567.538197,19.1337891 L567.538197,16.4995117 C567.538197,14.3730469 566.173451,13.0083008 564.205677,13.0083008 C562.206166,13.0083008 560.936634,14.3730469 560.936634,16.4677734 L560.936634,43.9848633 C560.936634,46.2382812 562.333119,47.6030273 564.364369,47.6030273 Z M608.048362,47.6347656 C616.300315,47.6347656 621.854514,43.5087891 621.854514,37.3198242 C621.854514,32.3686523 619.15676,29.8613281 612.1426,28.2426758 L606.96926,27.0366211 C603.446311,26.2114258 601.827659,24.7514648 601.827659,22.6567383 C601.827659,20.0541992 604.366721,18.2451172 608.048362,18.2451172 C611.41262,18.2451172 613.44387,19.578125 614.935569,22.1171875 C615.602073,23.1962891 616.58596,23.5771484 617.6968,23.5771484 C619.410667,23.5771484 620.362815,22.5615234 620.362815,21.0380859 C620.362815,20.7207031 620.299339,20.4033203 620.235862,20.0224609 C619.283714,16.0869141 614.332542,13.0083008 608.302268,13.0083008 C600.367698,13.0083008 595.130882,17.0073242 595.130882,23.0375977 C595.130882,27.7983398 598.30471,30.972168 604.779319,32.4956055 L610.047874,33.7333984 C613.6343,34.590332 614.935569,35.7646484 614.935569,37.9545898 C614.935569,40.7158203 612.301292,42.3979492 608.397483,42.3979492 C604.430198,42.3979492 602.430686,41.1918945 600.716819,38.4941406 C599.859885,37.2246094 598.875999,36.6850586 597.733421,36.6850586 C596.019553,36.6850586 594.78176,37.7006836 594.78176,39.4145508 C594.78176,39.8588867 594.845237,40.3349609 595.067405,40.8427734 C596.654319,44.9370117 601.478538,47.6347656 608.048362,47.6347656 Z M641.036555,47.6347656 C647.257258,47.6347656 652.113215,45.1274414 654.303156,40.7475586 C654.588801,40.0810547 654.77923,39.4462891 654.77923,38.9067383 C654.77923,37.1928711 653.573176,36.1137695 651.922785,36.1137695 C650.938898,36.1137695 650.240656,36.4628906 649.510676,37.3198242 C646.971613,40.7792969 644.62298,42.0805664 640.877863,42.0805664 C635.418879,42.0805664 631.991144,38.2719727 631.991144,32.1782227 L631.991144,32.0195312 L652.176691,32.0195312 C654.303156,32.0195312 655.572687,30.75 655.572687,28.5283203 C655.572687,19.4194336 649.447199,13.0083008 640.56048,13.0083008 C631.102472,13.0083008 625.072199,19.8637695 625.072199,30.4643555 C625.072199,41.2553711 630.975519,47.6347656 641.036555,47.6347656 Z M632.022883,27.2270508 C632.372004,22.0219727 635.799738,18.5307617 640.528742,18.5307617 C645.289484,18.5307617 648.558527,21.9902344 648.717219,27.2270508 L632.022883,27.2270508 Z M663.709806,47.6030273 C665.709317,47.6030273 667.13754,46.2382812 667.13754,43.9848633 L667.13754,27.5444336 C667.13754,22.3710938 670.247892,18.9433594 675.07211,18.9433594 C679.832852,18.9433594 682.181485,21.7045898 682.181485,26.7192383 L682.181485,43.9848633 C682.181485,46.2382812 683.609708,47.6030273 685.60922,47.6030273 C687.64047,47.6030273 689.068692,46.2382812 689.068692,43.9848633 L689.068692,25.3862305 C689.068692,17.7373047 684.847501,13.0400391 677.48422,13.0400391 C672.342618,13.0400391 668.851407,15.3251953 667.042325,19.1337891 L666.883634,19.1337891 L666.883634,16.4995117 C666.883634,14.3730469 665.518888,13.0083008 663.551114,13.0083008 C661.551602,13.0083008 660.282071,14.3730469 660.282071,16.4677734 L660.282071,43.9848633 C660.282071,46.2382812 661.678556,47.6030273 663.709806,47.6030273 Z"/></svg>