<svg xmlns="http://www.w3.org/2000/svg" xmlns:xlink="http://www.w3.org/1999/xlink" width="100" height="100"><defs><circle id="a" cx="40" cy="40" r="33.784"/></defs><circle cx="50" cy="50" r="50" fill="#F0CA00"/><circle cx="50" cy="50" r="47.297" fill="#008754"/><g transform="translate(10 10)"><mask id="b" fill="#fff"><use xlink:href="#a"/></mask><use xlink:href="#a" fill="#F0CA00"/><g mask="url(#b)"><path d="M0 60h20v20H0z"/><path fill="#FFF" d="M20 60h20v20H20z"/><path d="M40 60h20v20H40z"/><path fill="#FFF" d="M60 60h20v20H60zM0 40h20v20H0z"/><path d="M20 40h20v20H20z"/><path fill="#FFF" d="M40 40h20v20H40z"/><path d="M60 40h20v20H60zM0 20h20v20H0z"/><path fill="#FFF" d="M20 20h20v20H20z"/><path d="M40 20h20v20H40z"/><path fill="#FFF" d="M60 20h20v20H60zM0 0h20v20H0z"/><path d="M20 0h20v20H20z"/><path fill="#FFF" d="M40 0h20v20H40z"/><path d="M60 0h20v20H60z"/></g></g></svg>